<?xml version="1.0" encoding="UTF-8"?>
<svg version="1.1" xmlns="http://www.w3.org/2000/svg" width="500" height="500">
<path d="M0 0 C165 0 330 0 500 0 C500 165 500 330 500 500 C335 500 170 500 0 500 C0 335 0 170 0 0 Z " fill="#FEFEFE" transform="translate(0,0)"/>
<path d="M0 0 C-0.54226981 3.79588866 -2.20127563 5.47211993 -5 8 C-8.63857322 6.65212163 -11.99867539 4.96314732 -15.41552734 3.13085938 C-30.21411275 -4.68834006 -48.40550625 -8.31668318 -64.93359375 -3.69140625 C-65.61550781 -3.46324219 -66.29742187 -3.23507813 -67 -3 C-67.87785156 -2.72027344 -68.75570312 -2.44054687 -69.66015625 -2.15234375 C-76.46833645 0.16075186 -83.83219217 2.83219217 -89 8 C-87.68 8.99 -86.36 9.98 -85 11 C-84.30777344 10.54109375 -83.61554688 10.0821875 -82.90234375 9.609375 C-67.91416596 0.20967457 -51.08564687 -2.63084687 -33.75 1.0625 C-23.63359149 4.04122028 -14.03904852 9.18428495 -6 16 C-2.78475695 14.59155282 -0.67816132 12.89655214 1.75 10.375 C2.67039063 9.42753906 2.67039063 9.42753906 3.609375 8.4609375 C4.06828125 7.97882813 4.5271875 7.49671875 5 7 C14.83640535 11.36223194 21.06608975 23.44844583 24.82275391 33.11767578 C26.4243768 37.68976841 27.77972732 42.3126865 29 47 C29.20238281 47.77085937 29.40476563 48.54171875 29.61328125 49.3359375 C31.30888017 61.01673008 30.93435182 73.86057015 27 85 C26.64808594 86.06347656 26.29617187 87.12695312 25.93359375 88.22265625 C19.50882244 106.35196142 19.50882244 106.35196142 12.78515625 110.30078125 C12.19605469 110.53152344 11.60695312 110.76226562 11 111 C8.4375 108.75 8.4375 108.75 6 106 C6.51920188 101.75825869 8.92026941 98.11215175 10.875 94.375 C19.43010325 77.63379265 21.72248331 59.90062934 16.35546875 41.70703125 C14.09388804 35.52190128 11.16584929 29.77144997 8 24 C6.68 24 5.36 24 4 24 C4 28.46095301 5.32732633 31.01374031 7.375 34.8125 C11.20588031 41.95257569 13.42044901 48.89945777 14 57 C14.07734375 58.00933594 14.1546875 59.01867187 14.234375 60.05859375 C14.85711646 75.29846114 9.5117466 90.50950754 -0.375 102.1875 C-1.24125 103.115625 -2.1075 104.04375 -3 105 C-1.52278578 108.45201639 0.43794001 110.64961936 3.125 113.25 C3.84945312 113.95640625 4.57390625 114.6628125 5.3203125 115.390625 C5.87460938 115.92171875 6.42890625 116.4528125 7 117 C3.60020639 121.41655431 0.19732887 124.61045254 -4.5625 127.5625 C-5.17383789 127.94744629 -5.78517578 128.33239258 -6.41503906 128.72900391 C-12.00996626 132.16390095 -17.78757087 134.86155078 -24 137 C-24.69246826 137.25894043 -25.38493652 137.51788086 -26.09838867 137.78466797 C-33.35139143 140.27938779 -40.19208385 140.44910453 -47.8125 140.375 C-48.99392578 140.38660156 -50.17535156 140.39820313 -51.39257812 140.41015625 C-62.77833393 140.37272363 -73.28779079 138.5340832 -83.375 133.125 C-84.02082031 132.79886719 -84.66664062 132.47273437 -85.33203125 132.13671875 C-89.86041726 129.7950785 -93.90669573 127.03560291 -98 124 C-96.02 121.69 -94.04 119.38 -92 117 C-88.97267053 117.75683237 -86.96812206 118.3992829 -84.28515625 119.77734375 C-83.59873047 120.12603516 -82.91230469 120.47472656 -82.20507812 120.83398438 C-81.14450195 121.38022461 -81.14450195 121.38022461 -80.0625 121.9375 C-64.25542539 130.03663355 -47.46553362 132.97778529 -30 128 C-22.72028496 125.314141 -15.57116906 122.14021634 -9 118 C-9.66 116.68 -10.32 115.36 -11 114 C-14.76442522 115.44360527 -18.32668566 117.14802959 -21.9375 118.9375 C-37.03029635 125.89686156 -53.1595252 127.25539785 -69 122 C-77.48368818 118.4506083 -85.04161816 114.05636938 -92 108 C-92.67095703 108.58007812 -92.67095703 108.58007812 -93.35546875 109.171875 C-94.26232422 109.95304687 -94.26232422 109.95304687 -95.1875 110.75 C-96.07501953 111.51570313 -96.07501953 111.51570313 -96.98046875 112.296875 C-99.28650436 114.24161683 -101.63817511 116.12359335 -104 118 C-119.17521204 102.15033409 -127.61483912 83.01280997 -127.34692383 60.86669922 C-126.78622328 43.16644477 -121.60400731 26.63470859 -110 13 C-106.535 15.97 -106.535 15.97 -103 19 C-104.34157412 22.62850616 -106.03089081 25.96468156 -107.86914062 29.36474609 C-115.92816101 44.52881691 -119.19180836 62.65016653 -114.45825195 79.45068359 C-111.94107075 87.43904617 -108.65200114 95.02199829 -104 102 C-102.02 101.01 -102.02 101.01 -100 100 C-101.39789796 96.31463264 -103.08016541 92.91114102 -104.9375 89.4375 C-111.60907628 76.01278782 -113.91614388 59.38327058 -109.17578125 44.84765625 C-105.19990012 35.21836274 -100.69919324 26.03903189 -94 18 C-97.3 14.7 -100.6 11.4 -104 8 C-101.47644514 0.42933541 -90.53047196 -4.95314183 -83.71948242 -8.4074707 C-55.37431255 -21.9432117 -25.3610156 -17.45274192 0 0 Z " fill="#5775FF" transform="translate(146,158)"/>
<path d="M0 0 C-0.54226981 3.79588866 -2.20127563 5.47211993 -5 8 C-8.63857322 6.65212163 -11.99867539 4.96314732 -15.41552734 3.13085938 C-30.21411275 -4.68834006 -48.40550625 -8.31668318 -64.93359375 -3.69140625 C-65.61550781 -3.46324219 -66.29742187 -3.23507813 -67 -3 C-67.87785156 -2.72027344 -68.75570312 -2.44054687 -69.66015625 -2.15234375 C-76.46833645 0.16075186 -83.83219217 2.83219217 -89 8 C-87.68 8.99 -86.36 9.98 -85 11 C-84.30777344 10.54109375 -83.61554688 10.0821875 -82.90234375 9.609375 C-67.91416596 0.20967457 -51.08564687 -2.63084687 -33.75 1.0625 C-23.63359149 4.04122028 -14.03904852 9.18428495 -6 16 C-2.78475695 14.59155282 -0.67816132 12.89655214 1.75 10.375 C2.67039063 9.42753906 2.67039063 9.42753906 3.609375 8.4609375 C4.06828125 7.97882813 4.5271875 7.49671875 5 7 C14.83640535 11.36223194 21.06608975 23.44844583 24.82275391 33.11767578 C26.4243768 37.68976841 27.77972732 42.3126865 29 47 C29.20238281 47.77085937 29.40476563 48.54171875 29.61328125 49.3359375 C31.30888017 61.01673008 30.93435182 73.86057015 27 85 C26.64808594 86.06347656 26.29617187 87.12695312 25.93359375 88.22265625 C19.50882244 106.35196142 19.50882244 106.35196142 12.78515625 110.30078125 C12.19605469 110.53152344 11.60695312 110.76226562 11 111 C8.4375 108.75 8.4375 108.75 6 106 C6.51920188 101.75825869 8.92026941 98.11215175 10.875 94.375 C19.43010325 77.63379265 21.72248331 59.90062934 16.35546875 41.70703125 C14.09388804 35.52190128 11.16584929 29.77144997 8 24 C6.68 24 5.36 24 4 24 C4 28.46095301 5.32732633 31.01374031 7.375 34.8125 C11.20588031 41.95257569 13.42044901 48.89945777 14 57 C14.07734375 58.00933594 14.1546875 59.01867187 14.234375 60.05859375 C14.85711646 75.29846114 9.5117466 90.50950754 -0.375 102.1875 C-1.24125 103.115625 -2.1075 104.04375 -3 105 C-1.52278578 108.45201639 0.43794001 110.64961936 3.125 113.25 C3.84945312 113.95640625 4.57390625 114.6628125 5.3203125 115.390625 C5.87460938 115.92171875 6.42890625 116.4528125 7 117 C3.60020639 121.41655431 0.19732887 124.61045254 -4.5625 127.5625 C-5.17383789 127.94744629 -5.78517578 128.33239258 -6.41503906 128.72900391 C-12.00996626 132.16390095 -17.78757087 134.86155078 -24 137 C-24.69246826 137.25894043 -25.38493652 137.51788086 -26.09838867 137.78466797 C-33.35139143 140.27938779 -40.19208385 140.44910453 -47.8125 140.375 C-48.99392578 140.38660156 -50.17535156 140.39820313 -51.39257812 140.41015625 C-62.77833393 140.37272363 -73.28779079 138.5340832 -83.375 133.125 C-84.02082031 132.79886719 -84.66664062 132.47273437 -85.33203125 132.13671875 C-89.86041726 129.7950785 -93.90669573 127.03560291 -98 124 C-96.02 121.69 -94.04 119.38 -92 117 C-88.97267053 117.75683237 -86.96812206 118.3992829 -84.28515625 119.77734375 C-83.59873047 120.12603516 -82.91230469 120.47472656 -82.20507812 120.83398438 C-81.14450195 121.38022461 -81.14450195 121.38022461 -80.0625 121.9375 C-64.25542539 130.03663355 -47.46553362 132.97778529 -30 128 C-22.72028496 125.314141 -15.57116906 122.14021634 -9 118 C-9.66 116.68 -10.32 115.36 -11 114 C-14.76442522 115.44360527 -18.32668566 117.14802959 -21.9375 118.9375 C-37.03029635 125.89686156 -53.1595252 127.25539785 -69 122 C-77.48368818 118.4506083 -85.04161816 114.05636938 -92 108 C-92.67095703 108.58007812 -92.67095703 108.58007812 -93.35546875 109.171875 C-94.26232422 109.95304687 -94.26232422 109.95304687 -95.1875 110.75 C-96.07501953 111.51570313 -96.07501953 111.51570313 -96.98046875 112.296875 C-99.28650436 114.24161683 -101.63817511 116.12359335 -104 118 C-119.17521204 102.15033409 -127.61483912 83.01280997 -127.34692383 60.86669922 C-126.78622328 43.16644477 -121.60400731 26.63470859 -110 13 C-106.535 15.97 -106.535 15.97 -103 19 C-104.34157412 22.62850616 -106.03089081 25.96468156 -107.86914062 29.36474609 C-115.92816101 44.52881691 -119.19180836 62.65016653 -114.45825195 79.45068359 C-111.94107075 87.43904617 -108.65200114 95.02199829 -104 102 C-102.02 101.01 -102.02 101.01 -100 100 C-101.39789796 96.31463264 -103.08016541 92.91114102 -104.9375 89.4375 C-111.60907628 76.01278782 -113.91614388 59.38327058 -109.17578125 44.84765625 C-105.19990012 35.21836274 -100.69919324 26.03903189 -94 18 C-97.3 14.7 -100.6 11.4 -104 8 C-101.47644514 0.42933541 -90.53047196 -4.95314183 -83.71948242 -8.4074707 C-55.37431255 -21.9432117 -25.3610156 -17.45274192 0 0 Z M-89 28 C-98.60241814 40.58247894 -102.26305934 53.3352417 -101 69 C-99.12934467 82.39672066 -92.58080444 94.78655551 -82.0546875 103.4140625 C-75.2911693 108.11695108 -69.02085517 111.75041124 -61 114 C-60.07574219 114.28617188 -60.07574219 114.28617188 -59.1328125 114.578125 C-44.33597245 117.50497248 -29.42676649 113.04530355 -17 105 C-5.90952172 96.50486382 1.56292152 83.7863681 4 70 C5.47941613 53.15873963 1.09971175 39.39392448 -9.6875 26.3125 C-16.9463114 18.50168773 -25.89544983 14.04610427 -36 11 C-36.598125 10.80664062 -37.19625 10.61328125 -37.8125 10.4140625 C-57.22739053 6.73910108 -75.73704918 13.60539809 -89 28 Z " fill="#5674FF" transform="translate(146,158)"/>
<path d="M0 0 C10.39148156 7.78933132 16.27983426 17.6594502 20 30 C20.19207031 30.61101562 20.38414062 31.22203125 20.58203125 31.8515625 C23.25683835 45.60057097 19.86301094 59.37605207 12.86328125 71.30859375 C4.7519188 83.02500618 -6.84044333 90.73875573 -20.5625 94.5 C-30.48713521 96.07805502 -40.67445523 95.88694975 -50 92 C-50.81855469 91.6596875 -51.63710937 91.319375 -52.48046875 90.96875 C-65.2526908 85.10738918 -74.90629675 75.63490378 -80.4140625 62.671875 C-85.15520085 48.82365796 -86.22537986 34.51586896 -80 21 C-72.65138309 6.11672525 -62.65787827 -2.2315419 -47.32421875 -8.23828125 C-31.23953572 -13.50973199 -13.50065719 -9.71416235 0 0 Z M-65.9375 11.8125 C-74.40872325 21.94113649 -77.56802172 32.51943431 -77.30859375 45.59765625 C-76.14494367 58.42726662 -70.10232838 68.70318331 -60.87890625 77.47265625 C-57.53582308 80.1902145 -53.91225039 82.21782042 -50 84 C-49.43176514 84.26111572 -48.86353027 84.52223145 -48.27807617 84.79125977 C-42.87393981 87.06942768 -38.01619057 87.5076514 -32.1875 87.4375 C-31.30602295 87.42992676 -30.4245459 87.42235352 -29.51635742 87.41455078 C-18.69437719 87.14128356 -10.49725941 83.63949357 -2 77 C-1.38382812 76.52175781 -0.76765625 76.04351562 -0.1328125 75.55078125 C7.9877963 68.38659971 13.31222377 56.16415856 14.2109375 45.49609375 C14.70162897 32.22855141 10.2408859 22.42458836 2.75 11.8125 C-6.0643613 2.79781231 -17.76247563 -2.98827005 -30.5 -3.25 C-44.31180776 -3.02458474 -56.36885266 1.75355833 -65.9375 11.8125 Z " fill="#F8F9FF" transform="translate(129,178)"/>
<path d="M0 0 C5.00039256 5.12860775 7.72827019 9.08205513 8 16.4375 C7.70265972 22.80218927 6.29779666 28.22190719 2.046875 33.09375 C-3.35660177 37.98531844 -9.12118577 38.9750296 -16.1640625 38.81640625 C-20.96592572 38.18293569 -23.64432258 35.49469221 -26.8125 32.0625 C-31.04914653 25.85883902 -31.4484754 19.83960675 -30.5625 12.5 C-28.70761779 6.74555148 -25.41345564 2.24145281 -20.07421875 -0.6875 C-13.52772103 -2.80518511 -6.31454818 -2.65875713 0 0 Z " fill="#0A0A0A" transform="translate(279.5625,211.5)"/>
<path d="M0 0 C4.2103651 1.74634461 6.16649861 4.89959667 7.875 9 C9.04462234 12.33409587 9 14.21014346 9 18 C0.09 18 -8.82 18 -18 18 C-16.66795352 27.44346998 -16.66795352 27.44346998 -11 33 C-5.35590541 34.88136486 1.26944418 34.52814822 7 33 C6.75390625 34.890625 6.75390625 34.890625 6 37 C0.82913812 40.03236539 -5.16166393 40.56500027 -11 40 C-16.1850439 38.3302401 -19.59757998 36.27732803 -23 32 C-25.63985063 25.71464136 -26.1776995 18.33810827 -24.3828125 11.7265625 C-19.77678227 1.08785551 -11.03889039 -1.88293573 0 0 Z " fill="#101010" transform="translate(402,210)"/>
<path d="M0 0 C0 1.98 0 3.96 0 6 C-0.75023437 5.71125 -1.50046875 5.4225 -2.2734375 5.125 C-9.52385019 2.49512739 -16.70658816 -0.10247992 -24.22265625 2.8828125 C-31.191493 6.81662315 -34.87202533 12.38803776 -37 20 C-37.90935104 29.41237379 -37.05352649 37.37608846 -31.8125 45.3125 C-26.0204421 50.8471331 -21.58374917 52.25268267 -13.5 52.4375 C-7.65181436 52.29144142 -3.23834507 51.56572003 2 49 C2 50.65 2 52.3 2 54 C-9.67776772 57.28932598 -22.39266982 58.03328751 -33.51171875 52.54296875 C-40.31696442 48.32307544 -45.01243331 42.85728119 -47 35 C-48.36895209 25.04831354 -46.75802519 17.26258199 -41 9 C-38.57933921 6.1936574 -36.07666173 4.05683717 -33 2 C-32.06994141 1.35224609 -32.06994141 1.35224609 -31.12109375 0.69140625 C-22.51969318 -4.17318233 -8.97508767 -3.5785836 0 0 Z " fill="#0B0B0B" transform="translate(242,194)"/>
<path d="M0 0 C1.32451172 0.4021875 1.32451172 0.4021875 2.67578125 0.8125 C5.82399847 2.23036375 7.71480057 3.38287217 10 6 C11.88918168 11.37580161 11.9979187 17.64618083 10 23 C6.50610388 26.66912191 2.87271419 28.64927353 -2 30 C-5.63869841 29.71310263 -8.60438224 27.69754803 -11.75 25.9375 C-12.73484375 25.38964844 -13.7196875 24.84179688 -14.734375 24.27734375 C-15.48203125 23.85582031 -16.2296875 23.43429688 -17 23 C-18.42857918 11.24067696 -18.42857918 11.24067696 -17 6 C-12.43735403 1.02321715 -6.69406738 -2.12407907 0 0 Z " fill="#FCFDFF" transform="translate(101,206)"/>
<path d="M0 0 C3.45925163 1.2491742 6.14693203 2.67527795 9 5 C9.78375 4.175 10.5675 3.35 11.375 2.5 C14.95771137 -0.47850114 18.09448888 -0.71984391 22.65625 -0.5 C26.24585412 0.26578221 27.86994058 2.11411305 30 5 C31.47905238 7.95810476 31.12190903 10.9547155 31.09765625 14.1953125 C31.0962413 14.90275604 31.09482635 15.61019958 31.09336853 16.33908081 C31.087766 18.60109669 31.07521318 20.86301398 31.0625 23.125 C31.05748532 24.65755065 31.05292236 26.19010286 31.04882812 27.72265625 C31.03779577 31.48180888 31.02052952 35.24088772 31 39 C28.69 39 26.38 39 24 39 C23.98541748 38.10692139 23.97083496 37.21384277 23.95581055 36.29370117 C23.89472923 32.97782722 23.82057522 29.66278101 23.73754883 26.34741211 C23.70430999 24.91295372 23.67627465 23.47836487 23.65356445 22.04370117 C23.61999729 19.98039193 23.56768587 17.91827697 23.51171875 15.85546875 C23.48553467 14.61434326 23.45935059 13.37321777 23.43237305 12.09448242 C23.24702866 9.03980846 23.24702866 9.03980846 21.65161133 7.0949707 C19.04107944 5.36426331 17.0479128 5.62678619 14 6 C11.73275153 7.00631455 11.73275153 7.00631455 10 9 C9.35402587 12.18823344 9.35402587 12.18823344 9.390625 15.85546875 C9.37408875 16.51710526 9.35755249 17.17874176 9.34051514 17.86042786 C9.29200712 19.96954601 9.27066073 22.07794323 9.25 24.1875 C9.22184223 25.61917695 9.19191505 27.05082028 9.16015625 28.48242188 C9.08625107 31.98812393 9.03669212 35.49368875 9 39 C6.36 39 3.72 39 1 39 C0.98018066 38.05680908 0.96036133 37.11361816 0.93994141 36.1418457 C0.86165234 32.62856966 0.77495302 29.11570736 0.68261719 25.6027832 C0.64443296 24.08496022 0.60956192 22.56704999 0.578125 21.04907227 C0.53224372 18.86182569 0.47428971 16.67517418 0.4140625 14.48828125 C0.3826416 13.17384033 0.3512207 11.85939941 0.31884766 10.50512695 C0.02144568 7.23575466 -0.59117427 4.93876104 -2 2 C-1.34 1.34 -0.68 0.68 0 0 Z " fill="#151515" transform="translate(295,210)"/>
<path d="M0 0 C3.52777196 1.39470054 4.7836587 2.65683794 6.8125 5.875 C9.061398 11.96253425 9.11162158 19.33449909 7.23828125 25.51171875 C5.54459726 29.13339085 3.736445 32.29191086 0 34 C-3.4375 34.5 -3.4375 34.5 -7 34 C-10.74214432 31.08944331 -12.55621578 28.45800039 -14 24 C-14.86261926 16.39987034 -14.97936361 9.7973191 -10.38671875 3.453125 C-7.05978876 -0.03312276 -4.64089737 -0.46408974 0 0 Z " fill="#FAFAFA" transform="translate(271,213)"/>
<path d="M0 0 C2.56269497 1.04109483 4.02610343 2.02610343 6 4 C8.91397289 3.76994951 10.57671122 3.3457601 12.85546875 1.484375 C15.39463103 -0.27315081 16.87359636 -0.49168559 19.9375 -0.5625 C20.77152344 -0.60503906 21.60554688 -0.64757812 22.46484375 -0.69140625 C26.18957223 0.32442879 28.10049793 2.77600857 30 6 C30.43200242 8.82390225 30.59273105 11.00844924 30.48828125 13.8046875 C30.48120651 14.5286673 30.47413177 15.25264709 30.46684265 15.99856567 C30.43904109 18.29179976 30.37634075 20.58251487 30.3125 22.875 C30.28739822 24.43746452 30.26458834 25.99996764 30.24414062 27.5625 C30.18926274 31.37595805 30.10309912 35.18755326 30 39 C27.69 39 25.38 39 23 39 C22.98018066 38.0713916 22.96036133 37.1427832 22.93994141 36.18603516 C22.86191387 32.7454948 22.77522538 29.30540109 22.68261719 25.86523438 C22.64430002 24.37541111 22.60945192 22.88549446 22.578125 21.39550781 C22.53253271 19.25551952 22.47453126 17.11617564 22.4140625 14.9765625 C22.36693115 13.04417725 22.36693115 13.04417725 22.31884766 11.07275391 C22.31541732 7.89518495 22.31541732 7.89518495 20 6 C16.52502604 5.67824315 13.97409707 5.51436414 10.81152344 7.09106445 C8.15392629 9.89157012 8.45493107 12.0453339 8.390625 15.85546875 C8.37408875 16.51710526 8.35755249 17.17874176 8.34051514 17.86042786 C8.29200712 19.96954601 8.27066073 22.07794323 8.25 24.1875 C8.22184223 25.61917695 8.19191505 27.05082028 8.16015625 28.48242188 C8.08625107 31.98812393 8.03669212 35.49368875 8 39 C5.69 39 3.38 39 1 39 C0.98541748 38.08186523 0.97083496 37.16373047 0.95581055 36.21777344 C0.89466485 32.80312091 0.82049783 29.38926328 0.73754883 25.97509766 C0.70434645 24.49896862 0.67629983 23.02271406 0.65356445 21.54638672 C0.61993049 19.42100668 0.56761481 17.29677196 0.51171875 15.171875 C0.48553467 13.8940918 0.45935059 12.61630859 0.43237305 11.29980469 C-0.02634846 7.79891259 -0.84775835 6.66329156 -3 4 C-2.67 3.01 -2.34 2.02 -2 1 C-1.34 0.67 -0.68 0.34 0 0 Z " fill="#040404" transform="translate(338,210)"/>
<path d="M0 0 C1.8871875 -0.00386719 1.8871875 -0.00386719 3.8125 -0.0078125 C7 0.125 7 0.125 9 1.125 C9 3.105 9 5.085 9 7.125 C8.33613281 6.89683594 7.67226563 6.66867188 6.98828125 6.43359375 C6.10527344 6.14613281 5.22226562 5.85867187 4.3125 5.5625 C3.44238281 5.27246094 2.57226562 4.98242188 1.67578125 4.68359375 C-1.30563848 4.06119518 -3.11075674 4.2010288 -6 5.125 C-11.09521672 10.50328431 -11.28758863 15.04707692 -11.21875 22.171875 C-10.88055957 26.73744574 -9.57828086 29.687392 -6.203125 32.76171875 C-3.567782 34.39245404 -2.07165219 34.46864793 1 34.375 C1.845625 34.35953125 2.69125 34.3440625 3.5625 34.328125 C5.81855769 34.14012019 7.82850004 33.74830092 10 33.125 C9.9375 34.9375 9.9375 34.9375 9 37.125 C3.85263456 40.12762984 -1.08637308 41.18173058 -7 40.125 C-11.5638497 38.38331884 -14.96287842 35.82682943 -17.5 31.625 C-20.12761526 25.43133545 -20.1364345 18.10890521 -18.3046875 11.6875 C-14.61553028 3.50315121 -8.81196423 -0.0180573 0 0 Z " fill="#0D0D0D" transform="translate(436,209.875)"/>
<path d="M0 0 C0 2.64 0 5.28 0 8 C3.3 8 6.6 8 10 8 C10 8.66 10 9.32 10 10 C6.7 10 3.4 10 0 10 C0.11797018 14.39675988 0.24219726 18.79328399 0.37231445 23.18969727 C0.41571813 24.68639269 0.45738913 26.18313939 0.49731445 27.67993164 C0.55488616 29.82714312 0.61861716 31.97409521 0.68359375 34.12109375 C0.72025146 35.4145874 0.75690918 36.70808105 0.79467773 38.04077148 C0.6667278 40.88555008 0.6667278 40.88555008 2 42 C3.34747084 42.23075082 4.70377565 42.41153063 6.0625 42.5625 C7.361875 42.706875 8.66125 42.85125 10 43 C10 43.66 10 44.32 10 45 C6.28150284 47.47899811 2.32163164 47.7454149 -2 47 C-4.43119623 45.12984906 -5.64069173 43.71861655 -7 41 C-7.08586809 38.67583704 -7.10711043 36.34916693 -7.09765625 34.0234375 C-7.0962413 33.33819 -7.09482635 32.6529425 -7.09336853 31.94692993 C-7.08776675 29.75624239 -7.07521406 27.5656567 -7.0625 25.375 C-7.05748522 23.89062648 -7.05292228 22.40625135 -7.04882812 20.921875 C-7.03779677 17.28121685 -7.02053099 13.64061836 -7 10 C-8.98 10 -10.96 10 -13 10 C-13.33 9.01 -13.66 8.02 -14 7 C-11.69 7 -9.38 7 -7 7 C-6.938125 6.401875 -6.87625 5.80375 -6.8125 5.1875 C-5.78539135 2.42220748 -3.17879223 0 0 0 Z " fill="#0E0E0E" transform="translate(464,203)"/>
<path d="M0 0 C6.79938579 5.1952017 10.31304546 12.2865821 12.8046875 20.37890625 C12.9375 23.24609375 12.9375 23.24609375 12.8046875 25.37890625 C7.88544754 23.62062369 3.46594194 21.05880818 -1.0703125 18.50390625 C-1.84761719 18.06949219 -2.62492187 17.63507813 -3.42578125 17.1875 C-8.03047978 14.61041662 -12.61754703 12.00349179 -17.1953125 9.37890625 C-14.5904075 6.46754184 -11.58502887 4.58576748 -8.2578125 2.56640625 C-7.21753906 1.92058594 -6.17726563 1.27476562 -5.10546875 0.609375 C-2.1953125 -0.62109375 -2.1953125 -0.62109375 0 0 Z " fill="#F8F9FF" transform="translate(122.1953125,191.62109375)"/>
<path d="M0 0 C0 6.27 0 12.54 0 19 C-10.94380179 21.73595045 -19.41049553 21.93592202 -30 18 C-27.41188445 15.0719913 -24.4277888 13.36239875 -21.0546875 11.42578125 C-20.48420685 11.09708542 -19.9137262 10.76838959 -19.32595825 10.42973328 C-18.12533806 9.73923025 -16.92339395 9.05102472 -15.72021484 8.36499023 C-13.87154726 7.3105306 -12.02729799 6.24865647 -10.18359375 5.18554688 C-1.1507356 0 -1.1507356 0 0 0 Z " fill="#FAFBFF" transform="translate(111,237)"/>
<path d="M0 0 C6.36306674 1.9516283 11.67025619 5.06986091 17.375 8.4375 C18.39722656 9.02337891 19.41945313 9.60925781 20.47265625 10.21289062 C21.43816406 10.78072266 22.40367188 11.34855469 23.3984375 11.93359375 C24.28192871 12.44978271 25.16541992 12.96597168 26.07568359 13.49780273 C26.71070801 13.99352783 27.34573242 14.48925293 28 15 C28 15.99 28 16.98 28 18 C25.55078125 19.859375 25.55078125 19.859375 22.3125 21.75 C21.25675781 22.38421875 20.20101562 23.0184375 19.11328125 23.671875 C16 25 16 25 13.328125 24.94921875 C7.31622591 22.49805855 3.97447345 15.45491592 1.5625 9.75 C0.23567686 6.35244451 -0.16162721 3.64630976 0 0 Z " fill="#FAFBFF" transform="translate(60,224)"/>
<path d="M0 0 C0 10.89 0 21.78 0 33 C-4.50157228 31.49947591 -7.48199699 30.29497484 -11.375 27.875 C-12.24898437 27.33617187 -13.12296875 26.79734375 -14.0234375 26.2421875 C-14.67570312 25.83226562 -15.32796875 25.42234375 -16 25 C-15.57715562 15.48600151 -10.22685411 7.59879889 -3.515625 1.14453125 C-2 0 -2 0 0 0 Z " fill="#FBFBFF" transform="translate(76,190)"/>
<path d="M0 0 C1.01610352 -0.02416992 1.01610352 -0.02416992 2.05273438 -0.04882812 C7.16822633 -0.05373272 10.57149284 1.09334522 15.0625 3.3125 C12.39932555 6.15671111 9.89139811 8.17901434 6.47265625 10.0390625 C5.60576172 10.5134375 4.73886719 10.9878125 3.84570312 11.4765625 C2.94787109 11.95867187 2.05003906 12.44078125 1.125 12.9375 C0.23103516 13.42734375 -0.66292969 13.9171875 -1.58398438 14.421875 C-5.67577867 16.64547814 -9.59545184 18.57568074 -13.9375 20.3125 C-13.9375 14.3725 -13.9375 8.4325 -13.9375 2.3125 C-8.87616556 0.62538852 -5.17443306 -0.02447698 0 0 Z " fill="#FCFCFF" transform="translate(97.9375,182.6875)"/>
<path d="M0 0 C4.50157228 1.50052409 7.48199699 2.70502516 11.375 5.125 C12.24898437 5.66382813 13.12296875 6.20265625 14.0234375 6.7578125 C14.67570313 7.16773438 15.32796875 7.57765625 16 8 C13.56328214 18.0461175 9.67220643 26.94962342 1 33 C0.67 33 0.34 33 0 33 C0 22.11 0 11.22 0 0 Z " fill="#FCFCFF" transform="translate(119,218)"/>
<path d="M0 0 C4.6814433 -0.20232765 6.96671595 0.0182727 10.74609375 2.94921875 C13.77108132 7.047589 13.81827604 9.82220188 13.78125 14.76953125 C13.77983505 15.47697479 13.7784201 16.18441833 13.77696228 16.91329956 C13.77135975 19.17531544 13.75880693 21.43723273 13.74609375 23.69921875 C13.74107907 25.2317694 13.73651611 26.76432161 13.73242188 28.296875 C13.72138952 32.05602763 13.70412327 35.81510647 13.68359375 39.57421875 C11.37359375 39.57421875 9.06359375 39.57421875 6.68359375 39.57421875 C6.66901123 38.68114014 6.65442871 37.78806152 6.6394043 36.86791992 C6.57832298 33.55204597 6.50416897 30.23699976 6.42114258 26.92163086 C6.38790374 25.48717247 6.3598684 24.05258362 6.3371582 22.61791992 C6.30359104 20.55461068 6.25127962 18.49249572 6.1953125 16.4296875 C6.16912842 15.18856201 6.14294434 13.94743652 6.1159668 12.66870117 C5.93560061 9.60522361 5.93560061 9.60522361 4.29296875 7.6640625 C2.1054969 6.18274054 0.61081186 6.27303535 -2.00390625 6.38671875 C-2.81214844 6.41378906 -3.62039063 6.44085938 -4.453125 6.46875 C-5.06800781 6.50355469 -5.68289063 6.53835937 -6.31640625 6.57421875 C-4.78945478 3.24268828 -3.72042884 0.92226482 0 0 Z " fill="#080808" transform="translate(312.31640625,209.42578125)"/>
<path d="M0 0 C4.10390185 0.73283962 5.72060074 1.52795511 8.5 4.625 C9.16 6.935 9.82 9.245 10.5 11.625 C4.23 11.625 -2.04 11.625 -8.5 11.625 C-8.5 6.625 -8.5 6.625 -6.4375 3.3125 C-3.5 0.625 -3.5 0.625 0 0 Z " fill="#FAFAFA" transform="translate(393.5,213.375)"/>
<path d="M0 0 C0 1.65 0 3.3 0 5 C-2.31 5.33 -4.62 5.66 -7 6 C-6.8125 4.125 -6.8125 4.125 -6 2 C-2 0 -2 0 0 0 Z " fill="#1C1C1C" transform="translate(244,243)"/>
</svg>
