<svg version="1.1" id="Layer_1" xmlns="http://www.w3.org/2000/svg" xmlns:xlink="http://www.w3.org/1999/xlink" x="0px" y="0px"
	 width="100%" viewBox="0 0 500 500" enable-background="new 0 0 500 500" xml:space="preserve">
<path fill="#FFFFFF" opacity="1.000000" stroke="none" 
	d="
M233.000000,501.000000 
	C155.333359,501.000000 78.166702,501.000000 1.000041,501.000000 
	C1.000028,334.333405 1.000028,167.666779 1.000014,1.000131 
	C167.666565,1.000087 334.333130,1.000087 500.999756,1.000044 
	C500.999847,167.666519 500.999847,334.333038 500.999939,500.999786 
	C411.833344,501.000000 322.666656,501.000000 233.000000,501.000000 
M105.058441,153.094193 
	C118.201324,154.583298 130.066483,159.405106 140.127121,166.914215 
	C142.901733,164.630615 145.197693,162.740967 147.509460,160.838318 
	C118.533508,134.285355 67.362785,138.207108 42.599228,167.292892 
	C46.344215,170.475082 50.149887,173.708847 53.942127,176.931183 
	C32.080341,203.120850 30.198154,230.163742 47.759167,258.596191 
	C46.361950,259.902832 45.183510,261.004852 44.008495,262.103668 
	C38.226280,256.059631 32.843262,244.198303 31.027187,233.644272 
	C27.572445,213.567215 32.475105,195.441605 44.258476,179.101959 
	C41.927181,176.601837 39.900555,174.428452 37.857643,172.237595 
	C13.251179,199.400681 13.183565,248.138519 43.624275,276.979462 
	C47.036312,273.195557 50.465530,269.392609 53.831989,265.659241 
	C80.137657,287.519440 107.121758,289.656647 135.671417,271.879913 
	C136.902573,273.240143 138.071808,274.531952 139.466385,276.072754 
	C127.664619,284.930634 114.768883,289.316223 100.644615,289.781525 
	C85.743828,290.272461 71.987602,286.186340 59.720139,277.665131 
	C56.983593,275.764282 55.150787,275.559082 53.090031,278.253906 
	C52.008648,279.668030 50.666584,280.882751 49.431511,282.198944 
	C80.151466,308.656311 129.347610,303.770813 154.216003,275.625793 
	C152.396118,274.008667 150.475845,272.416687 148.691116,270.685028 
	C146.828354,268.877563 145.096161,266.935547 143.408203,265.158997 
	C164.557846,239.245560 166.646332,212.547012 149.042114,184.207962 
	C150.324905,183.030884 151.698303,181.770660 153.529785,180.090103 
	C171.875351,208.625870 171.164688,236.091080 152.546219,263.842926 
	C154.740723,265.981354 156.959274,268.143250 159.199402,270.326141 
	C185.147858,240.508759 181.813095,191.979736 152.407028,165.051163 
	C149.152023,168.893875 145.848312,172.794098 142.617630,176.608124 
	C116.331535,155.107498 89.489067,153.041031 61.165825,170.764252 
	C59.951229,169.443481 58.748562,168.135696 57.315884,166.577774 
	C71.532364,156.016876 87.073997,151.909042 105.058441,153.094193 
M200.050201,207.579453 
	C191.721130,224.192520 196.555725,241.133377 211.747757,247.859161 
	C221.794373,252.306961 232.190155,251.889740 242.502457,248.867661 
	C243.820068,248.481537 244.604980,246.277618 245.636673,244.915833 
	C232.176315,250.372025 218.862183,249.027908 211.384918,240.820557 
	C204.142944,232.871445 202.827118,216.542480 209.037170,206.543915 
	C217.855560,192.345795 230.110764,195.085052 242.776794,200.763550 
	C243.152252,198.656143 243.435013,197.068970 243.704575,195.555939 
	C228.656143,188.503983 209.584717,193.601364 200.050201,207.579453 
M304.602631,249.005386 
	C304.624481,240.688797 304.537323,232.369354 304.755371,224.057907 
	C304.801880,222.285141 305.472015,219.620758 306.701569,218.972076 
	C309.439392,217.527634 313.134583,215.829788 315.632172,216.661072 
	C317.583405,217.310516 319.261993,221.558777 319.418854,224.301865 
	C319.901276,232.737701 319.594604,241.218658 319.594604,249.727783 
	C322.214355,249.727783 324.439819,249.727783 326.928650,249.727783 
	C326.928650,241.800583 326.932068,234.172012 326.925934,226.543427 
	C326.924622,224.880310 326.980896,223.210190 326.854248,221.555267 
	C326.111572,211.850067 318.054565,207.433487 309.958130,212.344498 
	C307.993011,213.536453 306.261078,215.112930 304.241180,216.650162 
	C302.023071,214.745377 299.768799,212.809540 297.324371,210.710403 
	C295.985596,211.730331 294.718018,212.696014 293.178192,213.869080 
	C298.649750,218.931076 297.049683,225.358124 297.187225,231.382111 
	C297.326691,237.491409 297.218018,243.606369 297.218018,249.775894 
	C299.858368,249.775894 301.986450,249.775894 304.602631,249.005386 
M287.952209,230.390244 
	C287.744568,220.097961 283.567444,213.364349 276.006073,211.132874 
	C267.875427,208.733383 257.785889,212.255020 253.445938,219.007187 
	C248.351135,226.933731 248.623611,239.692337 254.904526,245.495270 
	C257.849335,248.215973 262.262115,250.387604 266.213165,250.785172 
	C278.267029,251.998032 286.324402,244.339233 287.952209,230.390244 
M339.884338,224.914246 
	C339.884338,233.174316 339.884338,241.434387 339.884338,249.836411 
	C342.445679,249.836411 344.527954,249.836411 347.052734,249.836411 
	C347.052734,241.072586 346.967255,232.472641 347.128204,223.877319 
	C347.158691,222.249893 347.722107,219.731506 348.810547,219.198441 
	C351.749115,217.759323 355.525177,215.842850 358.153809,216.678818 
	C360.111328,217.301361 361.703918,221.868393 361.877014,224.772964 
	C362.368652,233.022263 362.049408,241.319870 362.049408,249.728729 
	C364.642975,249.728729 366.842834,249.728729 369.130890,249.728729 
	C369.130890,239.817062 369.431000,230.173065 369.041138,220.557022 
	C368.695343,212.027390 360.838196,207.899963 353.288635,211.964600 
	C350.978546,213.208328 348.942719,214.961411 346.624207,216.591721 
	C344.378784,214.678696 342.142731,212.773636 339.743042,210.729187 
	C338.362701,211.832092 337.138214,212.810471 336.717407,213.146683 
	C337.908447,217.234070 338.895935,220.622925 339.884338,224.914246 
M407.337067,229.032089 
	C408.797577,228.964722 410.258057,228.897354 411.697021,228.830978 
	C411.964417,217.574890 405.667480,210.005875 396.577881,210.370895 
	C388.547852,210.693390 381.487061,216.057373 379.055695,223.682281 
	C376.168762,232.735901 378.562347,242.733597 384.742310,247.434830 
	C390.796204,252.040161 401.783966,252.277710 408.320374,247.819733 
	C409.177460,247.235184 409.611938,246.030991 410.675323,244.483398 
	C391.768341,248.029755 384.818054,243.726898 385.010651,229.032104 
	C392.121155,229.032104 399.245117,229.032104 407.337067,229.032089 
M469.936279,250.745728 
	C471.937317,249.916443 473.938385,249.087143 475.939423,248.257858 
	C475.734955,247.772552 475.530487,247.287247 475.326050,246.801941 
	C473.711426,247.047958 471.872284,247.894012 470.536713,247.394241 
	C468.699921,246.706924 465.897247,245.058121 465.840912,243.722900 
	C465.437195,234.150513 465.625092,224.553192 465.625092,214.549759 
	C468.207977,214.549759 470.361511,214.713837 472.471619,214.482193 
	C473.566376,214.362000 474.584229,213.541702 475.636810,213.037659 
	C474.640656,212.473221 473.685638,211.536407 472.639954,211.420975 
	C470.382874,211.171829 468.079254,211.344345 465.686127,211.344345 
	C465.514832,208.542358 465.377502,206.295837 465.162384,202.777023 
	C461.780060,205.955917 459.189026,208.391098 456.095886,211.298218 
	C455.137177,211.368057 453.258392,211.504913 451.379639,211.641785 
	C451.345917,212.046417 451.312225,212.451050 451.278503,212.855667 
	C453.414215,213.445648 455.549957,214.035614 458.151825,214.754364 
	C458.151825,223.338745 458.098114,231.960587 458.167358,240.581451 
	C458.233215,248.785828 460.839233,251.181290 469.936279,250.745728 
M442.280823,211.121460 
	C439.803833,210.903610 437.291748,210.306473 434.855774,210.531982 
	C422.752472,211.652344 415.346344,224.098984 418.604980,237.575455 
	C421.551544,249.761276 434.919556,255.059692 445.280060,248.069519 
	C446.240051,247.421814 446.740021,246.092300 448.288116,243.894714 
	C445.326447,244.864929 443.970795,245.419418 442.562714,245.752060 
	C434.439148,247.671173 427.784668,244.311844 425.581787,236.745331 
	C423.677948,230.205978 424.728180,223.867645 428.544464,218.151917 
	C430.576019,215.109116 433.351532,213.640350 437.109314,214.941879 
	C439.990845,215.939926 442.891327,216.883255 445.821503,217.863663 
	C446.674255,212.807922 446.674255,212.807922 442.280823,211.121460 
z"/>
<path fill="#5675FF" opacity="1.000000" stroke="none" 
	d="
M104.599655,153.059219 
	C87.073997,151.909042 71.532364,156.016876 57.315884,166.577774 
	C58.748562,168.135696 59.951229,169.443481 61.165825,170.764252 
	C89.489067,153.041031 116.331535,155.107498 142.617630,176.608124 
	C145.848312,172.794098 149.152023,168.893875 152.407028,165.051163 
	C181.813095,191.979736 185.147858,240.508759 159.199402,270.326141 
	C156.959274,268.143250 154.740723,265.981354 152.546219,263.842926 
	C171.164688,236.091080 171.875351,208.625870 153.529785,180.090103 
	C151.698303,181.770660 150.324905,183.030884 149.042114,184.207962 
	C166.646332,212.547012 164.557846,239.245560 143.408203,265.158997 
	C145.096161,266.935547 146.828354,268.877563 148.691116,270.685028 
	C150.475845,272.416687 152.396118,274.008667 154.216003,275.625793 
	C129.347610,303.770813 80.151466,308.656311 49.431511,282.198944 
	C50.666584,280.882751 52.008648,279.668030 53.090031,278.253906 
	C55.150787,275.559082 56.983593,275.764282 59.720139,277.665131 
	C71.987602,286.186340 85.743828,290.272461 100.644615,289.781525 
	C114.768883,289.316223 127.664619,284.930634 139.466385,276.072754 
	C138.071808,274.531952 136.902573,273.240143 135.671417,271.879913 
	C107.121758,289.656647 80.137657,287.519440 53.831989,265.659241 
	C50.465530,269.392609 47.036312,273.195557 43.624275,276.979462 
	C13.183565,248.138519 13.251179,199.400681 37.857643,172.237595 
	C39.900555,174.428452 41.927181,176.601837 44.258476,179.101959 
	C32.475105,195.441605 27.572445,213.567215 31.027187,233.644272 
	C32.843262,244.198303 38.226280,256.059631 44.008495,262.103668 
	C45.183510,261.004852 46.361950,259.902832 47.759167,258.596191 
	C30.198154,230.163742 32.080341,203.120850 53.942127,176.931183 
	C50.149887,173.708847 46.344215,170.475082 42.599228,167.292892 
	C67.362785,138.207108 118.533508,134.285355 147.509460,160.838318 
	C145.197693,162.740967 142.901733,164.630615 140.127121,166.914215 
	C130.066483,159.405106 118.201324,154.583298 104.599655,153.059219 
M49.696743,240.674103 
	C59.105251,263.552948 81.393364,276.484741 105.673584,273.152466 
	C135.728226,269.027649 155.814224,240.618973 149.855469,210.663651 
	C144.034760,181.402145 113.942055,162.974335 84.929306,170.609436 
	C57.604919,177.800201 37.608341,207.931534 49.696743,240.674103 
z"/>
<path fill="#0A0A0A" opacity="1.000000" stroke="none" 
	d="
M200.227097,207.259827 
	C209.584717,193.601364 228.656143,188.503983 243.704575,195.555939 
	C243.435013,197.068970 243.152252,198.656143 242.776794,200.763550 
	C230.110764,195.085052 217.855560,192.345795 209.037170,206.543915 
	C202.827118,216.542480 204.142944,232.871445 211.384918,240.820557 
	C218.862183,249.027908 232.176315,250.372025 245.636673,244.915833 
	C244.604980,246.277618 243.820068,248.481537 242.502457,248.867661 
	C232.190155,251.889740 221.794373,252.306961 211.747757,247.859161 
	C196.555725,241.133377 191.721130,224.192520 200.227097,207.259827 
z"/>
<path fill="#0F0F0F" opacity="1.000000" stroke="none" 
	d="
M304.358582,249.390640 
	C301.986450,249.775894 299.858368,249.775894 297.218018,249.775894 
	C297.218018,243.606369 297.326691,237.491409 297.187225,231.382111 
	C297.049683,225.358124 298.649750,218.931076 293.178192,213.869080 
	C294.718018,212.696014 295.985596,211.730331 297.324371,210.710403 
	C299.768799,212.809540 302.023071,214.745377 304.241180,216.650162 
	C306.261078,215.112930 307.993011,213.536453 309.958130,212.344498 
	C318.054565,207.433487 326.111572,211.850067 326.854248,221.555267 
	C326.980896,223.210190 326.924622,224.880310 326.925934,226.543427 
	C326.932068,234.172012 326.928650,241.800583 326.928650,249.727783 
	C324.439819,249.727783 322.214355,249.727783 319.594604,249.727783 
	C319.594604,241.218658 319.901276,232.737701 319.418854,224.301865 
	C319.261993,221.558777 317.583405,217.310516 315.632172,216.661072 
	C313.134583,215.829788 309.439392,217.527634 306.701569,218.972076 
	C305.472015,219.620758 304.801880,222.285141 304.755371,224.057907 
	C304.537323,232.369354 304.624481,240.688797 304.358582,249.390640 
z"/>
<path fill="#0A0A0A" opacity="1.000000" stroke="none" 
	d="
M287.938721,230.835968 
	C286.324402,244.339233 278.267029,251.998032 266.213165,250.785172 
	C262.262115,250.387604 257.849335,248.215973 254.904526,245.495270 
	C248.623611,239.692337 248.351135,226.933731 253.445938,219.007187 
	C257.785889,212.255020 267.875427,208.733383 276.006073,211.132874 
	C283.567444,213.364349 287.744568,220.097961 287.938721,230.835968 
M264.697021,247.174820 
	C270.878387,248.925995 274.301331,247.858887 277.226715,242.503830 
	C281.620880,234.460114 281.192444,226.145691 276.918915,218.274536 
	C273.997864,212.894363 267.386200,212.424194 263.001862,216.710861 
	C255.717941,223.832550 256.242676,240.057205 264.697021,247.174820 
z"/>
<path fill="#050505" opacity="1.000000" stroke="none" 
	d="
M339.883881,224.463013 
	C338.895935,220.622925 337.908447,217.234070 336.717407,213.146683 
	C337.138214,212.810471 338.362701,211.832092 339.743042,210.729187 
	C342.142731,212.773636 344.378784,214.678696 346.624207,216.591721 
	C348.942719,214.961411 350.978546,213.208328 353.288635,211.964600 
	C360.838196,207.899963 368.695343,212.027390 369.041138,220.557022 
	C369.431000,230.173065 369.130890,239.817062 369.130890,249.728729 
	C366.842834,249.728729 364.642975,249.728729 362.049408,249.728729 
	C362.049408,241.319870 362.368652,233.022263 361.877014,224.772964 
	C361.703918,221.868393 360.111328,217.301361 358.153809,216.678818 
	C355.525177,215.842850 351.749115,217.759323 348.810547,219.198441 
	C347.722107,219.731506 347.158691,222.249893 347.128204,223.877319 
	C346.967255,232.472641 347.052734,241.072586 347.052734,249.836411 
	C344.527954,249.836411 342.445679,249.836411 339.884338,249.836411 
	C339.884338,241.434387 339.884338,233.174316 339.883881,224.463013 
z"/>
<path fill="#0F0F0F" opacity="1.000000" stroke="none" 
	d="
M406.853088,229.032104 
	C399.245117,229.032104 392.121155,229.032104 385.010651,229.032104 
	C384.818054,243.726898 391.768341,248.029755 410.675323,244.483398 
	C409.611938,246.030991 409.177460,247.235184 408.320374,247.819733 
	C401.783966,252.277710 390.796204,252.040161 384.742310,247.434830 
	C378.562347,242.733597 376.168762,232.735901 379.055695,223.682281 
	C381.487061,216.057373 388.547852,210.693390 396.577881,210.370895 
	C405.667480,210.005875 411.964417,217.574890 411.697021,228.830978 
	C410.258057,228.897354 408.797577,228.964722 406.853088,229.032104 
M387.683960,219.489822 
	C386.819061,221.555908 385.954163,223.622009 384.903839,226.130966 
	C391.977997,226.130966 398.337708,226.130966 404.857635,226.130966 
	C404.403717,220.570312 401.947357,216.887909 396.831177,215.071777 
	C392.723602,213.613678 390.243042,215.757248 387.683960,219.489822 
z"/>
<path fill="#111111" opacity="1.000000" stroke="none" 
	d="
M469.529999,250.818939 
	C460.839233,251.181290 458.233215,248.785828 458.167358,240.581451 
	C458.098114,231.960587 458.151825,223.338745 458.151825,214.754364 
	C455.549957,214.035614 453.414215,213.445648 451.278503,212.855667 
	C451.312225,212.451050 451.345917,212.046417 451.379639,211.641785 
	C453.258392,211.504913 455.137177,211.368057 456.095886,211.298218 
	C459.189026,208.391098 461.780060,205.955917 465.162384,202.777023 
	C465.377502,206.295837 465.514832,208.542358 465.686127,211.344345 
	C468.079254,211.344345 470.382874,211.171829 472.639954,211.420975 
	C473.685638,211.536407 474.640656,212.473221 475.636810,213.037659 
	C474.584229,213.541702 473.566376,214.362000 472.471619,214.482193 
	C470.361511,214.713837 468.207977,214.549759 465.625092,214.549759 
	C465.625092,224.553192 465.437195,234.150513 465.840912,243.722900 
	C465.897247,245.058121 468.699921,246.706924 470.536713,247.394241 
	C471.872284,247.894012 473.711426,247.047958 475.326050,246.801941 
	C475.530487,247.287247 475.734955,247.772552 475.939423,248.257858 
	C473.938385,249.087143 471.937317,249.916443 469.529999,250.818939 
z"/>
<path fill="#0E0E0E" opacity="1.000000" stroke="none" 
	d="
M442.665466,211.227982 
	C446.674255,212.807922 446.674255,212.807922 445.821503,217.863663 
	C442.891327,216.883255 439.990845,215.939926 437.109314,214.941879 
	C433.351532,213.640350 430.576019,215.109116 428.544464,218.151917 
	C424.728180,223.867645 423.677948,230.205978 425.581787,236.745331 
	C427.784668,244.311844 434.439148,247.671173 442.562714,245.752060 
	C443.970795,245.419418 445.326447,244.864929 448.288116,243.894714 
	C446.740021,246.092300 446.240051,247.421814 445.280060,248.069519 
	C434.919556,255.059692 421.551544,249.761276 418.604980,237.575455 
	C415.346344,224.098984 422.752472,211.652344 434.855774,210.531982 
	C437.291748,210.306473 439.803833,210.903610 442.665466,211.227982 
z"/>
<path fill="#FAFBFF" opacity="1.000000" stroke="none" 
	d="
M49.526497,240.322754 
	C37.608341,207.931534 57.604919,177.800201 84.929306,170.609436 
	C113.942055,162.974335 144.034760,181.402145 149.855469,210.663651 
	C155.814224,240.618973 135.728226,269.027649 105.673584,273.152466 
	C81.393364,276.484741 59.105251,263.552948 49.526497,240.322754 
M132.561386,251.025497 
	C141.062378,240.810150 144.734879,229.195465 143.256912,215.873795 
	C140.694366,192.776657 120.336388,175.226517 96.750000,176.015884 
	C73.479691,176.794662 54.046963,196.016479 53.139446,219.153152 
	C52.395756,238.113190 63.220768,255.407700 80.507980,262.878265 
	C98.304497,270.568939 117.891365,266.259216 132.561386,251.025497 
z"/>
<path fill="#FAFAFA" opacity="1.000000" stroke="none" 
	d="
M264.337158,247.022141 
	C256.242676,240.057205 255.717941,223.832550 263.001862,216.710861 
	C267.386200,212.424194 273.997864,212.894363 276.918915,218.274536 
	C281.192444,226.145691 281.620880,234.460114 277.226715,242.503830 
	C274.301331,247.858887 270.878387,248.925995 264.337158,247.022141 
z"/>
<path fill="#F9F9F9" opacity="1.000000" stroke="none" 
	d="
M387.891479,219.141846 
	C390.243042,215.757248 392.723602,213.613678 396.831177,215.071777 
	C401.947357,216.887909 404.403717,220.570312 404.857635,226.130966 
	C398.337708,226.130966 391.977997,226.130966 384.903839,226.130966 
	C385.954163,223.622009 386.819061,221.555908 387.891479,219.141846 
z"/>
<path fill="#5775FF" opacity="1.000000" stroke="none" 
	d="
M132.310074,251.280487 
	C117.891365,266.259216 98.304497,270.568939 80.507980,262.878265 
	C63.220768,255.407700 52.395756,238.113190 53.139446,219.153152 
	C54.046963,196.016479 73.479691,176.794662 96.750000,176.015884 
	C120.336388,175.226517 140.694366,192.776657 143.256912,215.873795 
	C144.734879,229.195465 141.062378,240.810150 132.310074,251.280487 
M88.819389,231.519791 
	C95.232307,237.258713 101.629280,237.168320 108.050949,231.512054 
	C108.663651,230.972412 109.663460,230.808868 110.148903,230.202698 
	C110.910995,229.251068 111.768837,228.123184 111.925064,226.979614 
	C113.089302,218.457626 112.501366,210.720047 102.328239,207.830856 
	C101.865616,207.699448 101.486038,207.129868 101.043861,207.098160 
	C99.382149,206.979065 97.432846,206.415680 96.086212,207.057404 
	C84.516548,212.570770 84.426910,212.643982 85.009766,225.754471 
	C85.091125,227.584717 87.059517,229.331055 88.819389,231.519791 
M135.369019,227.176300 
	C130.251251,224.101532 125.133492,221.026764 119.788010,217.815186 
	C119.788010,229.806641 119.788010,240.758194 119.788010,252.548798 
	C128.686951,245.876740 133.788193,237.915161 135.369019,227.176300 
M110.235542,198.762177 
	C109.079391,199.526337 107.923248,200.290497 106.254166,201.393677 
	C116.394905,207.245956 125.854935,212.705399 136.032990,218.579208 
	C134.847351,207.130127 130.271729,198.618210 122.029823,191.933716 
	C118.054497,194.220520 114.454948,196.291153 110.235542,198.762177 
M69.199661,245.293503 
	C71.517609,246.831360 74.485207,250.145737 76.033722,249.579468 
	C81.009285,247.759979 85.460686,244.507111 90.822533,241.396210 
	C80.555656,235.472046 71.125771,230.030853 60.853348,224.103485 
	C61.569046,232.522217 64.349289,238.920837 69.199661,245.293503 
M87.557083,252.061386 
	C85.978020,253.024979 84.398949,253.988556 82.256332,255.296036 
	C91.544044,259.550507 100.130814,260.035706 108.853470,257.475739 
	C110.086426,257.113892 111.777275,255.542938 111.843483,254.446320 
	C112.158310,249.231522 111.984306,243.987228 111.984306,237.937119 
	C103.588837,242.806793 95.901299,247.265854 87.557083,252.061386 
M106.648956,184.462524 
	C100.414276,184.657776 94.171005,184.730362 87.953110,185.165558 
	C86.880997,185.240601 85.090805,186.811493 85.039566,187.766876 
	C84.754265,193.087204 84.902580,198.430771 84.902580,204.645279 
	C95.288620,198.639801 104.667732,193.216553 114.957382,187.266800 
	C111.767876,186.190491 109.608673,185.461853 106.648956,184.462524 
M77.132248,198.630630 
	C77.132248,196.132141 77.132248,193.633667 77.132248,190.153366 
	C67.826218,197.174057 62.880093,205.200867 61.197212,215.572891 
	C66.361137,218.534393 71.390030,221.418442 77.132378,224.711670 
	C77.132378,215.509308 77.132378,207.551010 77.132248,198.630630 
z"/>
<path fill="#FDFDFF" opacity="1.000000" stroke="none" 
	d="
M88.486893,231.318008 
	C87.059517,229.331055 85.091125,227.584717 85.009766,225.754471 
	C84.426910,212.643982 84.516548,212.570770 96.086212,207.057404 
	C97.432846,206.415680 99.382149,206.979065 101.043861,207.098160 
	C101.486038,207.129868 101.865616,207.699448 102.328239,207.830856 
	C112.501366,210.720047 113.089302,218.457626 111.925064,226.979614 
	C111.768837,228.123184 110.910995,229.251068 110.148903,230.202698 
	C109.663460,230.808868 108.663651,230.972412 108.050949,231.512054 
	C101.629280,237.168320 95.232307,237.258713 88.486893,231.318008 
z"/>
<path fill="#F3F5FF" opacity="1.000000" stroke="none" 
	d="
M135.500671,227.514343 
	C133.788193,237.915161 128.686951,245.876740 119.788010,252.548798 
	C119.788010,240.758194 119.788010,229.806641 119.788010,217.815186 
	C125.133492,221.026764 130.251251,224.101532 135.500671,227.514343 
z"/>
<path fill="#F9FAFF" opacity="1.000000" stroke="none" 
	d="
M110.545471,198.561981 
	C114.454948,196.291153 118.054497,194.220520 122.029823,191.933716 
	C130.271729,198.618210 134.847351,207.130127 136.032990,218.579208 
	C125.854935,212.705399 116.394905,207.245956 106.254166,201.393677 
	C107.923248,200.290497 109.079391,199.526337 110.545471,198.561981 
z"/>
<path fill="#FAFBFF" opacity="1.000000" stroke="none" 
	d="
M68.999420,244.989731 
	C64.349289,238.920837 61.569046,232.522217 60.853348,224.103485 
	C71.125771,230.030853 80.555656,235.472046 90.822533,241.396210 
	C85.460686,244.507111 81.009285,247.759979 76.033722,249.579468 
	C74.485207,250.145737 71.517609,246.831360 68.999420,244.989731 
z"/>
<path fill="#FBFCFF" opacity="1.000000" stroke="none" 
	d="
M87.885422,251.893143 
	C95.901299,247.265854 103.588837,242.806793 111.984306,237.937119 
	C111.984306,243.987228 112.158310,249.231522 111.843483,254.446320 
	C111.777275,255.542938 110.086426,257.113892 108.853470,257.475739 
	C100.130814,260.035706 91.544044,259.550507 82.256332,255.296036 
	C84.398949,253.988556 85.978020,253.024979 87.885422,251.893143 
z"/>
<path fill="#FBFCFF" opacity="1.000000" stroke="none" 
	d="
M107.049210,184.597870 
	C109.608673,185.461853 111.767876,186.190491 114.957382,187.266800 
	C104.667732,193.216553 95.288620,198.639801 84.902580,204.645279 
	C84.902580,198.430771 84.754265,193.087204 85.039566,187.766876 
	C85.090805,186.811493 86.880997,185.240601 87.953110,185.165558 
	C94.171005,184.730362 100.414276,184.657776 107.049210,184.597870 
z"/>
<path fill="#FCFDFF" opacity="1.000000" stroke="none" 
	d="
M77.132309,199.111679 
	C77.132378,207.551010 77.132378,215.509308 77.132378,224.711670 
	C71.390030,221.418442 66.361137,218.534393 61.197212,215.572891 
	C62.880093,205.200867 67.826218,197.174057 77.132248,190.153366 
	C77.132248,193.633667 77.132248,196.132141 77.132309,199.111679 
z"/>
</svg>